<?xml version="1.0" encoding="UTF-8" standalone="no"?>
<!-- Created with Inkscape (http://www.inkscape.org/) -->

<svg
   width="158.75mm"
   height="158.75mm"
   viewBox="0 0 158.75 158.75"
   version="1.1"
   id="svg78600"
   inkscape:version="1.1.2 (0a00cf5339, 2022-02-04)"
   sodipodi:docname="ubuntu-asahi.svg"
   xmlns:inkscape="http://www.inkscape.org/namespaces/inkscape"
   xmlns:sodipodi="http://sodipodi.sourceforge.net/DTD/sodipodi-0.dtd"
   xmlns="http://www.w3.org/2000/svg"
   xmlns:svg="http://www.w3.org/2000/svg">
  <sodipodi:namedview
     id="namedview78602"
     pagecolor="#ffffff"
     bordercolor="#666666"
     borderopacity="1.0"
     inkscape:pageshadow="2"
     inkscape:pageopacity="0.0"
     inkscape:pagecheckerboard="0"
     inkscape:document-units="mm"
     showgrid="false"
     fit-margin-top="0"
     fit-margin-left="0"
     fit-margin-right="0"
     fit-margin-bottom="0"
     inkscape:zoom="0.77771465"
     inkscape:cx="396.67505"
     inkscape:cy="383.81687"
     inkscape:window-width="1920"
     inkscape:window-height="1016"
     inkscape:window-x="0"
     inkscape:window-y="0"
     inkscape:window-maximized="1"
     inkscape:current-layer="g1294" />
  <defs
     id="defs78597" />
  <g
     inkscape:label="Layer 1"
     inkscape:groupmode="layer"
     id="layer1"
     transform="translate(0.1574609,-46.792325)">
    <path
       fill="#e50000"
       d="M -0.1574609,46.792325 H 158.59254 V 73.250658 H -0.1574609 Z"
       id="path23738"
       style="fill:#61bc44;fill-opacity:1;stroke-width:0.223614" />
    <path
       fill="#ff8d00"
       d="M -0.1574609,73.250658 H 158.59254 V 99.708991 H -0.1574609 Z"
       id="path23740"
       style="fill:#fdb922;fill-opacity:1;stroke-width:0.223614" />
    <path
       fill="#ffee00"
       d="M -0.1574609,99.708991 H 158.59254 V 126.16732 H -0.1574609 Z"
       id="path23742"
       style="fill:#f58319;fill-opacity:1;stroke-width:0.223614" />
    <path
       fill="#008121"
       d="M -0.1574609,126.16732 H 158.59254 v 26.45834 H -0.1574609 Z"
       id="path23744"
       style="fill:#e1373c;fill-opacity:1;stroke-width:0.223614" />
    <path
       fill="#004cff"
       d="M -0.1574609,152.62566 H 158.59254 v 26.45833 H -0.1574609 Z"
       id="path23746"
       style="fill:#973b98;fill-opacity:1;stroke-width:0.223614" />
    <path
       fill="#760188"
       d="M -0.1574609,179.08399 H 158.59254 v 26.45833 H -0.1574609 Z"
       id="path23748"
       style="fill:#009edd;fill-opacity:1;stroke-width:0.223614" />
    <g
       id="g1294"
       style="fill:#ffffff"
       transform="matrix(8.6480543,0,0,8.6480612,-9.6726809,-60.20227)">
      <ellipse
         class="cls-3"
         cx="4.8000002"
         cy="21.149981"
         id="circle929"
         style="fill:#ffffff;stroke-width:0.999998"
         rx="2.1700001"
         ry="2.1699932" />
      <circle
         class="cls-3"
         cx="13.86"
         cy="16.389999"
         r="2.1700001"
         id="circle931"
         style="fill:#ffffff" />
      <path
         class="cls-3"
         d="M 9.7,26.75 C 8.13,26.41 6.83,25.41 6.09,24 c -0.58,0.26 -1.23,0.34 -1.86,0.23 0.89,2.19 2.78,3.77 5.1,4.27 0.51,0.11 1.03,0.16 1.54,0.16 C 10.47,28.14 10.25,27.5 10.23,26.84 10.05,26.82 9.87,26.79 9.7,26.75 Z"
         id="path933"
         style="fill:#ffffff" />
      <circle
         class="cls-3"
         cx="13.37"
         cy="26.76"
         r="2.1700001"
         id="circle935"
         style="fill:#ffffff" />
      <path
         class="cls-3"
         d="m 16.39,25.96 c 0.68,-0.85 1.15,-1.86 1.38,-2.93 0.4,-1.87 0.03,-3.83 -1.03,-5.42 -0.25,0.59 -0.68,1.09 -1.22,1.43 0.59,1.11 0.77,2.38 0.5,3.61 -0.13,0.6 -0.36,1.17 -0.68,1.68 0.51,0.42 0.87,0.98 1.04,1.62 z"
         id="path937"
         style="fill:#ffffff" />
      <path
         class="cls-3"
         d="m 4.63,18.04 c 0.06,0 0.11,0 0.17,0 0.22,0 0.44,0.02 0.66,0.07 0.35,0.08 0.69,0.21 0.99,0.4 0.98,-1.41 2.56,-2.25 4.27,-2.28 0,-0.16 0.03,-0.33 0.07,-0.49 0.1,-0.47 0.3,-0.9 0.59,-1.27 -2.73,-0.22 -5.39,1.19 -6.74,3.58 z"
         id="path939"
         style="fill:#ffffff" />
    </g>
  </g>
</svg>
