<?xml version="1.0" encoding="UTF-8" standalone="no"?>
<svg
   width="1993.6678"
   height="1153.5312"
   id="svg2"
   version="1.1"
   inkscape:version="1.1.2 (0a00cf5339, 2022-02-04)"
   sodipodi:docname="hero.svg"
   style="display:inline"
   xmlns:inkscape="http://www.inkscape.org/namespaces/inkscape"
   xmlns:sodipodi="http://sodipodi.sourceforge.net/DTD/sodipodi-0.dtd"
   xmlns:xlink="http://www.w3.org/1999/xlink"
   xmlns="http://www.w3.org/2000/svg"
   xmlns:svg="http://www.w3.org/2000/svg"
   xmlns:rdf="http://www.w3.org/1999/02/22-rdf-syntax-ns#"
   xmlns:cc="http://creativecommons.org/ns#"
   xmlns:dc="http://purl.org/dc/elements/1.1/">
  <title
     id="title1371">MacBook Pro with Asahi Linux logo</title>
  <defs
     id="defs4">
    <linearGradient
       id="linearGradient4034">
      <stop
         style="stop-color:#7a7a7a;stop-opacity:1;"
         offset="0"
         id="stop4036" />
      <stop
         style="stop-color:#000000;stop-opacity:1;"
         offset="1"
         id="stop4038" />
    </linearGradient>
    <linearGradient
       id="linearGradient4014">
      <stop
         style="stop-color:#1f1e1c;stop-opacity:1;"
         offset="0"
         id="stop4016" />
      <stop
         style="stop-color:#56514d;stop-opacity:1;"
         offset="1"
         id="stop4018" />
    </linearGradient>
    <linearGradient
       id="linearGradient3926">
      <stop
         style="stop-color:#a7a7a7;stop-opacity:1"
         offset="0"
         id="stop3928" />
      <stop
         style="stop-color:#534f4f;stop-opacity:1"
         offset="1"
         id="stop3930" />
    </linearGradient>
    <linearGradient
       id="linearGradient3910">
      <stop
         style="stop-color:#dddddd;stop-opacity:1"
         offset="0"
         id="stop3912" />
      <stop
         style="stop-color:#616161;stop-opacity:1"
         offset="1"
         id="stop3914" />
    </linearGradient>
    <linearGradient
       id="linearGradient3880">
      <stop
         style="stop-color:#676767;stop-opacity:1"
         offset="0"
         id="stop3882" />
      <stop
         id="stop3906"
         offset="0.00363211"
         style="stop-color:#aeaeae;stop-opacity:1" />
      <stop
         id="stop3890"
         offset="0.00984098"
         style="stop-color:#f5f5f5;stop-opacity:1" />
      <stop
         style="stop-color:#cecece;stop-opacity:1"
         offset="0.02833396"
         id="stop3894" />
      <stop
         id="stop3904"
         offset="0.96774817"
         style="stop-color:#cecece;stop-opacity:1" />
      <stop
         id="stop3888"
         offset="0.9868266"
         style="stop-color:#f5f5f5;stop-opacity:1" />
      <stop
         style="stop-color:#aeaeae;stop-opacity:1"
         offset="0.99710274"
         id="stop3908" />
      <stop
         style="stop-color:#676767;stop-opacity:1"
         offset="1"
         id="stop3884" />
    </linearGradient>
    <linearGradient
       inkscape:collect="always"
       xlink:href="#linearGradient3880"
       id="linearGradient3902"
       x1="2632.8438"
       y1="1372.9688"
       x2="4788.9727"
       y2="1372.9688"
       gradientUnits="userSpaceOnUse"
       gradientTransform="matrix(0.92465149,0,0,0.6070637,279.61143,556.05593)" />
    <linearGradient
       inkscape:collect="always"
       xlink:href="#linearGradient3910"
       id="linearGradient3924"
       x1="3700.292"
       y1="1343.4175"
       x2="3700.292"
       y2="1370.7554"
       gradientUnits="userSpaceOnUse"
       gradientTransform="matrix(1.1062456,0,0,0.86553976,-390.64729,208.90629)" />
    <linearGradient
       inkscape:collect="always"
       xlink:href="#linearGradient3926"
       id="linearGradient3940"
       x1="3703.1587"
       y1="1402.9609"
       x2="3703.1587"
       y2="1434.0886"
       gradientUnits="userSpaceOnUse"
       gradientTransform="matrix(0.92465149,0,0,0.84590539,279.61143,220.99089)" />
    <linearGradient
       inkscape:collect="always"
       xlink:href="#linearGradient4014"
       id="linearGradient4028"
       x1="1518.2593"
       y1="314.88751"
       x2="1518.2593"
       y2="325.87311"
       gradientUnits="userSpaceOnUse" />
    <radialGradient
       inkscape:collect="always"
       xlink:href="#linearGradient4034"
       id="radialGradient4040"
       cx="1518.6073"
       cy="319.28983"
       fx="1518.6073"
       fy="319.28983"
       r="2.9673231"
       gradientUnits="userSpaceOnUse"
       gradientTransform="matrix(-0.69207955,-0.1201309,0.10291907,-0.59292143,2536.774,691.36823)" />
    <inkscape:path-effect
       effect="fillet_chamfer"
       id="path-effect7476-7"
       is_visible="true"
       lpeversion="1"
       satellites_param="F,1,0,1,0,0.16666667,0,1 @ F,1,0,1,0,1.0000001,0,1 @ F,1,0,1,0,0.16666667,0,1 @ F,1,0,1,0,0,0,1"
       unit="px"
       method="auto"
       mode="F"
       radius="300"
       chamfer_steps="1"
       flexible="true"
       use_knot_distance="true"
       apply_no_radius="true"
       apply_with_radius="true"
       only_selected="false"
       hide_knots="false" />
    <inkscape:path-effect
       effect="fillet_chamfer"
       id="path-effect7476"
       is_visible="true"
       lpeversion="1"
       satellites_param="F,1,0,1,0,0.16666667,0,1 @ F,1,0,1,0,1.0000001,0,1 @ F,1,0,1,0,0.16666667,0,1 @ F,1,0,1,0,0,0,1"
       unit="px"
       method="auto"
       mode="F"
       radius="300"
       chamfer_steps="1"
       flexible="true"
       use_knot_distance="true"
       apply_no_radius="true"
       apply_with_radius="true"
       only_selected="false"
       hide_knots="false" />
  </defs>
  <sodipodi:namedview
     id="base"
     pagecolor="#ffffff"
     bordercolor="#666666"
     borderopacity="1.0"
     inkscape:pageopacity="0.0"
     inkscape:pageshadow="2"
     inkscape:zoom="0.38364939"
     inkscape:cx="1077.807"
     inkscape:cy="222.85973"
     inkscape:document-units="px"
     inkscape:current-layer="layer3"
     showgrid="false"
     showborder="true"
     objecttolerance="20"
     guidetolerance="20"
     inkscape:window-width="1920"
     inkscape:window-height="1016"
     inkscape:window-x="0"
     inkscape:window-y="0"
     inkscape:window-maximized="1"
     fit-margin-top="0"
     fit-margin-left="0"
     fit-margin-right="0"
     fit-margin-bottom="0"
     inkscape:document-rotation="0"
     inkscape:snap-bbox="true"
     inkscape:snap-intersection-paths="true"
     inkscape:object-paths="true"
     inkscape:pagecheckerboard="0">
    <inkscape:grid
       type="xygrid"
       id="grid945"
       originx="-81.2306"
       originy="0" />
  </sodipodi:namedview>
  <metadata
     id="metadata7">
    <rdf:RDF>
      <cc:Work
         rdf:about="">
        <dc:format>image/svg+xml</dc:format>
        <dc:type
           rdf:resource="http://purl.org/dc/dcmitype/StillImage" />
        <dc:title>MacBook Pro with Asahi Linux logo</dc:title>
        <cc:license
           rdf:resource="http://creativecommons.org/licenses/by-sa/4.0/" />
        <dc:date>2021-01-05</dc:date>
        <dc:creator>
          <cc:Agent>
            <dc:title>marcan</dc:title>
          </cc:Agent>
        </dc:creator>
        <dc:rights>
          <cc:Agent>
            <dc:title>CC BY-SA</dc:title>
          </cc:Agent>
        </dc:rights>
        <dc:contributor>
          <cc:Agent>
            <dc:title>Based on &quot;Apple MacBook Pro SVG&quot; by averywebdesign:
https://www.deviantart.com/averywebdesign/art/Apple-MacBook-Pro-SVG-275421698</dc:title>
          </cc:Agent>
        </dc:contributor>
      </cc:Work>
      <cc:License
         rdf:about="http://creativecommons.org/licenses/by-sa/4.0/">
        <cc:permits
           rdf:resource="http://creativecommons.org/ns#Reproduction" />
        <cc:permits
           rdf:resource="http://creativecommons.org/ns#Distribution" />
        <cc:requires
           rdf:resource="http://creativecommons.org/ns#Notice" />
        <cc:requires
           rdf:resource="http://creativecommons.org/ns#Attribution" />
        <cc:permits
           rdf:resource="http://creativecommons.org/ns#DerivativeWorks" />
        <cc:requires
           rdf:resource="http://creativecommons.org/ns#ShareAlike" />
      </cc:License>
    </rdf:RDF>
  </metadata>
  <g
     inkscape:groupmode="layer"
     id="layer3"
     inkscape:label="Working Vector"
     style="display:inline"
     transform="translate(-2714.0744,-280.59375)">
    <path
       style="fill:#aca5a4;fill-opacity:1;stroke:none"
       d="M 2957.7295,280.59375 C 2926.3905,280.59375 2901.167,305.84853 2901.167,337.1875 V 1375.0626 L 4521.4483,1397.0626 V 337.1875 C 4521.4483,305.84853 4496.2248,280.59375 4464.8858,280.59375 Z"
       id="rect3049-5"
       inkscape:connector-curvature="0"
       sodipodi:nodetypes="ssccsss"
       inkscape:export-filename="C:\Users\Ben Avery\Desktop\MacBook Pro.png"
       inkscape:export-xdpi="553.15997"
       inkscape:export-ydpi="553.15997" />
    <path
       style="fill:#000000;fill-opacity:1;stroke:none"
       d="M 2966.9905,288.16989 C 2934.9182,288.16989 2910.7634,308.50784 2910.7634,344.36009 L 2906.4703,1397.0626 H 4516.7083 L 4512.1626,344.36009 C 4512.029,313.43181 4490.3065,288.16989 4457.5325,288.16989 Z"
       id="path3982"
       inkscape:connector-curvature="0"
       sodipodi:nodetypes="ssccsss"
       inkscape:export-filename="C:\Users\Ben Avery\Desktop\MacBook Pro.png"
       inkscape:export-xdpi="553.15997"
       inkscape:export-ydpi="553.15997" />
    <path
       style="fill:#524d49;fill-opacity:1;stroke:none"
       d="M 2962.5938,284.625 C 2931.6842,284.625 2906.2188,305.92344 2906.2188,341 V 382.8125 1342.1607 1364.5446 C 2906.2188,1399.6212 2931.6842,1404.491 2962.5938,1404.491 H 4464.3438 C 4490.7635,1404.491 4517.1562,1398.2644 4517.1562,1364.5446 V 1323.4732 403.25 341 C 4517.1562,307.28022 4490.7635,284.625 4464.3438,284.625 Z M 2967,288.15625 H 4457.5312 C 4490.3053,288.15625 4512.1562,313.44643 4512.1562,344.375 V 403.25 1323.4732 1361.1696 C 4512.1562,1392.0982 4490.3053,1400.9597 4457.5312,1400.9597 H 2967 C 2934.9277,1400.9597 2910.75,1397.0219 2910.75,1361.1696 V 1342.1607 382.8125 344.375 C 2910.75,308.52275 2934.9277,288.15625 2967,288.15625 Z"
       id="path3987"
       inkscape:connector-curvature="0"
       sodipodi:nodetypes="ssccssssccssssssccssssccss"
       inkscape:export-filename="C:\Users\Ben Avery\Desktop\MacBook Pro.png"
       inkscape:export-xdpi="553.15997"
       inkscape:export-ydpi="553.15997" />
    <path
       style="fill:url(#linearGradient3902);fill-opacity:1;stroke:none;stroke-width:1"
       d="M 2714.0744,1371.3804 V 1406.4194 C 2714.7618,1406.8447 2715.4969,1407.2675 2716.2415,1407.6904 H 4705.7737 C 4706.4245,1407.3665 4707.0732,1407.0496 4707.7096,1406.7229 4707.8296,1395.6 4707.5789,1381.8492 4707.594,1371.3804 Z"
       id="path3102"
       inkscape:connector-curvature="0"
       inkscape:export-filename="C:\Users\Ben Avery\Desktop\MacBook Pro.png"
       inkscape:export-xdpi="553.15997"
       inkscape:export-ydpi="553.15997" />
    <path
       style="fill:url(#linearGradient3940);fill-opacity:1;stroke:none;stroke-width:1"
       d="M 2716.2415,1407.6904 C 2733.2024,1421.1157 2824.7166,1433.4476 2858.7377,1434.125 H 4562.5839 C 4604.1547,1431.0326 4687.8009,1420.1531 4705.7737,1407.6904 Z"
       id="rect3007-1"
       inkscape:connector-curvature="0"
       inkscape:export-filename="C:\Users\Ben Avery\Desktop\MacBook Pro.png"
       inkscape:export-xdpi="553.15997"
       inkscape:export-ydpi="553.15997"
       sodipodi:nodetypes="ccccc" />
    <path
       style="fill:url(#linearGradient3924);fill-opacity:1;stroke:none;stroke-width:1"
       d="M 3547.91,1371.3804 V 1373.4662 C 3547.91,1384.1224 3562.8697,1396.7245 3576.4895,1396.7245 H 3845.3276 C 3858.9473,1396.7245 3873.907,1384.1224 3873.907,1373.4662 V 1371.3804 Z"
       id="rect3038-4"
       inkscape:connector-curvature="0"
       inkscape:export-filename="C:\Users\Ben Avery\Desktop\MacBook Pro.png"
       inkscape:export-xdpi="553.15997"
       inkscape:export-ydpi="553.15997"
       sodipodi:nodetypes="csssscc" />
    <path
       style="fill:#1a1a1a;fill-opacity:1;stroke:none;stroke-width:1"
       d="M 2948.5469,355.60375 H 4470.0143 V 1310.4298 H 2948.5469 Z"
       id="rect4077"
       inkscape:connector-curvature="0"
       inkscape:export-filename="C:\Users\Ben Avery\Desktop\MacBook Pro.png"
       inkscape:export-xdpi="553.15997"
       inkscape:export-ydpi="553.15997"
       sodipodi:nodetypes="ccccc" />
    <ellipse
       style="fill:#23201f;fill-opacity:1;stroke:none;stroke-width:0.332343"
       id="path3978"
       transform="matrix(-0.99997156,-0.00754152,-0.00901081,0.9999594,0,0)"
       inkscape:export-filename="C:\Users\Ben Avery\Desktop\MacBook Pro.png"
       inkscape:export-xdpi="553.15997"
       inkscape:export-ydpi="553.15997"
       cx="-3414.0981"
       cy="1400.1359"
       rx="10.732503"
       ry="2.4168887" />
    <ellipse
       transform="matrix(-0.99997156,-0.00754152,-0.00901081,0.9999594,0,0)"
       id="path3980"
       style="fill:#23201f;fill-opacity:1;stroke:none;stroke-width:0.332343"
       inkscape:export-filename="C:\Users\Ben Avery\Desktop\MacBook Pro.png"
       inkscape:export-xdpi="553.15997"
       inkscape:export-ydpi="553.15997"
       cx="-4033.0359"
       cy="1395.4674"
       rx="10.732503"
       ry="2.4168887" />
    <path
       id="path4012"
       style="fill:url(#linearGradient4028);fill-opacity:1;stroke:none"
       transform="translate(2192.2049,0.06313453)"
       d="M 1524.699,320.31726 A 6.6922607,6.6922607 0 0 1 1518.0067,327.00952 6.6922607,6.6922607 0 0 1 1511.3145,320.31726 6.6922607,6.6922607 0 0 1 1518.0067,313.625 6.6922607,6.6922607 0 0 1 1524.699,320.31726 Z" />
    <path
       id="path4032"
       style="fill:url(#radialGradient4040);fill-opacity:1;stroke:none"
       transform="translate(2192.2049,0.06313453)"
       d="M 1520.974,320.31726 A 2.9673231,2.9673231 0 0 1 1518.0067,323.28458 2.9673231,2.9673231 0 0 1 1515.0394,320.31726 2.9673231,2.9673231 0 0 1 1518.0067,317.34994 2.9673231,2.9673231 0 0 1 1520.974,320.31726 Z" />
    <g
       id="g1294"
       style="fill:#ffffff"
       transform="matrix(20.265047,0,0,20.265063,4252.7723,396.27255)">
      <g
         id="g1652"
         transform="translate(-37.107987)">
        <path
           fill="#e50000"
           d="m 4337.0694,541.42286 h 248 a 62.000003,62.000003 44.999997 0 1 62,62 h -372 a 62.000001,62.000001 135 0 1 62,-62 z"
           id="path23738"
           style="display:inline;fill:#61bc44;fill-opacity:1;stroke-width:0.523997"
           inkscape:path-effect="#path-effect7476"
           inkscape:original-d="m 4275.0694,541.42286 h 372 v 62 h -372 z"
           transform="matrix(0.04934605,0,0,0.04934601,-209.85751,-14.344967)" />
        <path
           fill="#e50000"
           d="m 4337.0694,913.42284 h 248 a 61.999983,61.999983 135 0 0 62,-61.99998 h -372 a 61.999991,61.999991 44.99999 0 0 62,61.99998 z"
           id="path23738-5"
           style="display:inline;fill:#009edd;fill-opacity:1;stroke-width:0.523997"
           inkscape:path-effect="#path-effect7476-7"
           inkscape:original-d="m 4275.0694,913.42284 h 372 v -61.99998 h -372 z"
           transform="matrix(0.04934605,0,0,0.04934601,-209.85751,-14.344967)" />
        <path
           fill="#ff8d00"
           d="m 4275.0694,603.42286 h 372 v 62 h -372 z"
           id="path23740"
           style="display:inline;fill:#fdb922;fill-opacity:1;stroke-width:0.523997"
           transform="matrix(0.04934605,0,0,0.04934601,-209.85751,-14.344967)" />
        <path
           fill="#ffee00"
           d="m 4275.0694,665.42286 h 372 v 61.99999 h -372 z"
           id="path23742"
           style="display:inline;fill:#f58319;fill-opacity:1;stroke-width:0.523997"
           transform="matrix(0.04934605,0,0,0.04934601,-209.85751,-14.344967)" />
        <path
           fill="#008121"
           d="m 4275.0694,727.42285 h 372 v 62.00002 h -372 z"
           id="path23744"
           style="display:inline;fill:#e1373c;fill-opacity:1;stroke-width:0.523997"
           transform="matrix(0.04934605,0,0,0.04934601,-209.85751,-14.344967)" />
        <path
           fill="#004cff"
           d="m 4275.0694,789.42287 h 372 v 61.99999 h -372 z"
           id="path23746"
           style="display:inline;fill:#973b98;fill-opacity:1;stroke-width:0.523997"
           transform="matrix(0.04934605,0,0,0.04934601,-209.85751,-14.344967)" />
        <ellipse
           class="cls-3"
           cx="4.8000002"
           cy="21.149981"
           id="circle929"
           style="fill:#ffffff;stroke-width:0.999998"
           rx="2.1700001"
           ry="2.1699932" />
        <circle
           class="cls-3"
           cx="13.86"
           cy="16.389999"
           r="2.1700001"
           id="circle931"
           style="fill:#ffffff" />
        <path
           class="cls-3"
           d="M 9.7,26.75 C 8.13,26.41 6.83,25.41 6.09,24 c -0.58,0.26 -1.23,0.34 -1.86,0.23 0.89,2.19 2.78,3.77 5.1,4.27 0.51,0.11 1.03,0.16 1.54,0.16 C 10.47,28.14 10.25,27.5 10.23,26.84 10.05,26.82 9.87,26.79 9.7,26.75 Z"
           id="path933"
           style="fill:#ffffff" />
        <circle
           class="cls-3"
           cx="13.37"
           cy="26.76"
           r="2.1700001"
           id="circle935"
           style="fill:#ffffff" />
        <path
           class="cls-3"
           d="m 16.39,25.96 c 0.68,-0.85 1.15,-1.86 1.38,-2.93 0.4,-1.87 0.03,-3.83 -1.03,-5.42 -0.25,0.59 -0.68,1.09 -1.22,1.43 0.59,1.11 0.77,2.38 0.5,3.61 -0.13,0.6 -0.36,1.17 -0.68,1.68 0.51,0.42 0.87,0.98 1.04,1.62 z"
           id="path937"
           style="fill:#ffffff" />
        <path
           class="cls-3"
           d="m 4.63,18.04 c 0.06,0 0.11,0 0.17,0 0.22,0 0.44,0.02 0.66,0.07 0.35,0.08 0.69,0.21 0.99,0.4 0.98,-1.41 2.56,-2.25 4.27,-2.28 0,-0.16 0.03,-0.33 0.07,-0.49 0.1,-0.47 0.3,-0.9 0.59,-1.27 -2.73,-0.22 -5.39,1.19 -6.74,3.58 z"
           id="path939"
           style="fill:#ffffff" />
      </g>
    </g>
  </g>
</svg>
